# xmcd CD database file
#
# Track frame offsets:
#	150
#	12775
#	24422
#	34060
#	45692
#	53972
#	62962
#	73307
#	84220
#	96350
#	107260
#	117257
#	127962
#	139210
#	148350
#	160952
#
# Disc length: 2321 seconds
#
# Revision: 0
# Processed by: cddbd v1.5.1PL0 Copyright (c) Steve Scherf et al.
# Submitted via: CDex 1.51
#
DISCID=e0090f10
DTITLE=Hillbilly Boogiemen - Rockin' and Cloggin'
DYEAR=1900
DGENRE=Country
TTITLE0=Hold watcha got
TTITLE1=Hitparade of Love
TTITLE2=Love me
TTITLE3=Lost to a stranger
TTITLE4=True loving woman
TTITLE5=One woman man
TTITLE6=I'm gonna hang in there (like a rusty fish hook)
TTITLE7=There stands the glass
TTITLE8=Why baby why
TTITLE9=Ole Slewfoot
TTITLE10=Mansion on the hill
TTITLE11=Whoa boy
TTITLE12=(Now and then there's) A fool such as I
TTITLE13=If I lose
TTITLE14=Eight more miles to Louisville
TTITLE15=White lightnin'
EXTD=
EXTT0=
EXTT1=
EXTT2=
EXTT3=
EXTT4=
EXTT5=
EXTT6=
EXTT7=
EXTT8=
EXTT9=
EXTT10=
EXTT11=
EXTT12=
EXTT13=
EXTT14=
EXTT15=
PLAYORDER=
